<?xml version="1.0" standalone="no"?>
<!DOCTYPE svg PUBLIC "-//W3C//DTD SVG 20010904//EN"
 "http://www.w3.org/TR/2001/REC-SVG-20010904/DTD/svg10.dtd">
<svg version="1.0" xmlns="http://www.w3.org/2000/svg"
 width="400.000000pt" height="400.000000pt" viewBox="0 0 400.000000 400.000000"
 preserveAspectRatio="xMidYMid meet">
<metadata>
Created by potrace 1.11, written by Peter Selinger 2001-2013
</metadata>
<g transform="translate(0.000000,400.000000) scale(0.100000,-0.100000)"
fill="#000000" stroke="none">
<path d="M3235 3750 c-11 -5 -83 -32 -160 -60 -77 -28 -178 -65 -225 -82 -47
-17 -89 -34 -94 -38 -9 -9 -14 -29 -152 -570 -46 -184 -89 -348 -94 -365 -5
-16 -11 -41 -14 -55 -3 -14 -16 -70 -31 -125 -14 -55 -28 -111 -30 -125 -3
-14 -8 -32 -11 -40 -5 -12 -176 -678 -189 -731 -8 -37 -99 -392 -230 -904 -25
-99 -48 -187 -50 -195 -6 -28 -46 -185 -51 -202 -5 -17 11 -18 233 -18 l238 0
79 308 c43 169 79 314 81 322 4 15 38 150 136 530 28 107 52 202 54 210 2 8
30 121 63 250 34 129 91 352 127 495 37 143 91 357 121 475 133 518 222 867
229 898 7 34 3 37 -30 22z"/>
<path d="M2270 2899 c-102 -38 -213 -79 -247 -91 l-62 -21 -30 -121 c-29 -120
-86 -342 -222 -876 -39 -151 -72 -282 -74 -290 -2 -8 -13 -51 -25 -95 -12 -44
-24 -88 -26 -97 -2 -10 -6 -27 -9 -38 -3 -11 -7 -28 -9 -38 -2 -9 -18 -71 -35
-137 -18 -66 -34 -131 -37 -145 -3 -14 -10 -43 -16 -65 -6 -22 -46 -176 -88
-342 l-77 -303 239 0 c131 0 238 3 238 6 0 3 18 77 41 163 22 86 42 163 44
171 2 8 30 121 63 250 60 232 96 373 254 990 198 776 250 976 253 995 3 11 13
50 23 88 17 60 18 67 3 66 -9 -1 -99 -32 -201 -70z"/>
<path d="M1410 2029 c-134 -49 -246 -92 -248 -94 -2 -2 -26 -89 -52 -192 -26
-103 -87 -341 -135 -528 -48 -187 -88 -348 -90 -357 -2 -10 -15 -59 -29 -110
-31 -114 -126 -493 -126 -502 0 -3 105 -6 234 -6 l234 0 11 33 c5 17 42 158
81 312 39 154 89 350 111 435 22 85 42 162 44 171 2 9 29 115 60 235 31 120
58 226 60 234 2 8 17 69 35 135 17 66 33 131 36 145 3 14 14 56 25 95 22 82
23 85 7 84 -7 0 -123 -41 -258 -90z"/>
</g>
</svg>
