<?xml version="1.0" encoding="utf-8"?>
<!-- Generator: Adobe Illustrator 16.0.0, SVG Export Plug-In . SVG Version: 6.00 Build 0)  -->
<!DOCTYPE svg PUBLIC "-//W3C//DTD SVG 1.1//EN" "http://www.w3.org/Graphics/SVG/1.1/DTD/svg11.dtd">
<svg version="1.1" id="Layer_1" xmlns="http://www.w3.org/2000/svg" xmlns:xlink="http://www.w3.org/1999/xlink" x="0px" y="0px"
	 width="36.216px" height="50px" viewBox="8.271 0 36.216 50" enable-background="new 8.271 0 36.216 50" xml:space="preserve">
<g>
	<g>
		<path fill="#19489A" d="M26.378,0C16.394,0,8.271,8.124,8.271,18.108c0,12.392,16.205,30.583,16.895,31.352
			c0.648,0.721,1.78,0.719,2.427,0c0.689-0.769,16.894-18.96,16.894-31.352C44.486,8.124,36.363,0,26.378,0z M26.378,27.219
			c-5.023,0-9.11-4.087-9.11-9.111s4.087-9.11,9.11-9.11c5.024,0,9.111,4.087,9.111,9.11C35.489,23.132,31.402,27.219,26.378,27.219
			z"/>
	</g>
</g>
</svg>
