<?xml version="1.0" encoding="utf-8"?>
<!-- Generator: Adobe Illustrator 16.0.0, SVG Export Plug-In . SVG Version: 6.00 Build 0)  -->
<!DOCTYPE svg PUBLIC "-//W3C//DTD SVG 1.1//EN" "http://www.w3.org/Graphics/SVG/1.1/DTD/svg11.dtd">
<svg version="1.1" id="Capa_1" xmlns="http://www.w3.org/2000/svg" xmlns:xlink="http://www.w3.org/1999/xlink" x="0px" y="0px"
	 width="32px" height="45px" viewBox="196.982 -1.5 32 45" enable-background="new 196.982 -1.5 32 45" xml:space="preserve">
<g>
	<path fill="#19489A" d="M213.012,0h-0.061c-7.253,0-13.154,5.898-13.154,13.149c0,4.752,2.164,11.025,6.433,18.644
		c3.165,5.647,6.374,9.973,6.407,10.016c0.088,0.12,0.23,0.191,0.378,0.191c0.004,0,0.009,0,0.014,0
		c0.153-0.005,0.295-0.083,0.381-0.212c0.032-0.047,3.218-4.86,6.36-10.745c4.244-7.942,6.396-13.964,6.396-17.894
		C226.167,5.899,220.263,0,213.012,0z M219.082,13.471c0,3.365-2.736,6.103-6.101,6.103c-3.365,0-6.101-2.738-6.101-6.103
		c0-3.365,2.736-6.102,6.101-6.102C216.346,7.369,219.082,10.106,219.082,13.471z"/>
</g>
</svg>
